<?xml version="1.0" encoding="UTF-8"?>
<svg xmlns="http://www.w3.org/2000/svg" version="1.1" width="300" height="300" viewBox="0 0 300 300"><rect x="0" y="0" width="300" height="300" fill="#ffffff"/><g transform="scale(10.345)"><g transform="translate(0,0)"><path fill-rule="evenodd" d="M10 0L10 2L11 2L11 0ZM12 0L12 1L13 1L13 2L12 2L12 4L13 4L13 3L14 3L14 4L17 4L17 5L15 5L15 6L14 6L14 8L15 8L15 9L12 9L12 7L13 7L13 5L11 5L11 6L10 6L10 4L11 4L11 3L8 3L8 4L9 4L9 5L8 5L8 7L9 7L9 8L6 8L6 9L5 9L5 8L0 8L0 9L1 9L1 10L2 10L2 12L3 12L3 13L4 13L4 14L2 14L2 13L1 13L1 11L0 11L0 13L1 13L1 14L2 14L2 15L0 15L0 21L1 21L1 18L2 18L2 21L4 21L4 20L5 20L5 19L7 19L7 20L6 20L6 21L8 21L8 23L9 23L9 22L10 22L10 25L9 25L9 24L8 24L8 29L10 29L10 28L9 28L9 26L10 26L10 25L12 25L12 26L13 26L13 27L12 27L12 29L13 29L13 28L14 28L14 29L20 29L20 28L21 28L21 29L24 29L24 28L25 28L25 27L27 27L27 28L26 28L26 29L27 29L27 28L28 28L28 26L29 26L29 25L27 25L27 24L28 24L28 22L29 22L29 21L28 21L28 20L29 20L29 19L28 19L28 18L29 18L29 17L28 17L28 18L25 18L25 17L24 17L24 16L26 16L26 17L27 17L27 16L26 16L26 15L25 15L25 14L26 14L26 13L27 13L27 14L29 14L29 13L28 13L28 12L29 12L29 11L28 11L28 10L29 10L29 9L28 9L28 8L27 8L27 9L28 9L28 10L26 10L26 8L25 8L25 9L24 9L24 8L23 8L23 9L22 9L22 8L21 8L21 6L20 6L20 7L19 7L19 6L18 6L18 7L19 7L19 8L17 8L17 5L20 5L20 4L21 4L21 3L17 3L17 2L16 2L16 0L15 0L15 1L14 1L14 0ZM18 0L18 2L19 2L19 1L21 1L21 0ZM8 1L8 2L9 2L9 1ZM14 2L14 3L15 3L15 2ZM9 6L9 7L10 7L10 6ZM11 6L11 7L12 7L12 6ZM15 6L15 7L16 7L16 6ZM10 8L10 9L8 9L8 11L9 11L9 12L11 12L11 13L10 13L10 14L8 14L8 15L5 15L5 16L4 16L4 17L5 17L5 16L7 16L7 17L6 17L6 18L7 18L7 19L8 19L8 21L9 21L9 20L11 20L11 21L10 21L10 22L13 22L13 23L12 23L12 25L15 25L15 26L16 26L16 27L17 27L17 28L18 28L18 27L17 27L17 26L19 26L19 28L20 28L20 27L21 27L21 28L23 28L23 27L24 27L24 26L27 26L27 25L26 25L26 24L27 24L27 23L26 23L26 22L28 22L28 21L26 21L26 20L28 20L28 19L26 19L26 20L25 20L25 21L26 21L26 22L25 22L25 23L26 23L26 24L25 24L25 25L24 25L24 26L23 26L23 25L22 25L22 26L19 26L19 25L20 25L20 24L19 24L19 23L18 23L18 21L19 21L19 22L20 22L20 20L21 20L21 19L22 19L22 20L23 20L23 18L24 18L24 17L23 17L23 16L24 16L24 15L22 15L22 14L21 14L21 16L20 16L20 14L19 14L19 13L21 13L21 12L22 12L22 13L23 13L23 14L24 14L24 13L25 13L25 12L27 12L27 11L26 11L26 10L24 10L24 9L23 9L23 10L22 10L22 9L21 9L21 8L19 8L19 9L15 9L15 10L17 10L17 11L14 11L14 12L13 12L13 13L12 13L12 11L13 11L13 10L12 10L12 9L11 9L11 8ZM2 9L2 10L3 10L3 9ZM6 9L6 10L4 10L4 11L3 11L3 12L4 12L4 13L6 13L6 14L7 14L7 13L6 13L6 12L7 12L7 11L6 11L6 10L7 10L7 9ZM10 9L10 11L11 11L11 9ZM19 9L19 10L18 10L18 12L14 12L14 13L19 13L19 12L20 12L20 11L19 11L19 10L21 10L21 9ZM23 10L23 11L22 11L22 12L23 12L23 13L24 13L24 12L25 12L25 11L24 11L24 10ZM4 11L4 12L5 12L5 11ZM23 11L23 12L24 12L24 11ZM10 14L10 15L8 15L8 17L7 17L7 18L8 18L8 19L9 19L9 18L10 18L10 15L11 15L11 17L12 17L12 18L13 18L13 19L12 19L12 21L13 21L13 20L14 20L14 21L15 21L15 20L16 20L16 21L18 21L18 20L20 20L20 19L21 19L21 18L20 18L20 16L17 16L17 15L19 15L19 14L15 14L15 15L14 15L14 16L15 16L15 17L12 17L12 15L13 15L13 14ZM15 15L15 16L16 16L16 15ZM28 15L28 16L29 16L29 15ZM1 16L1 17L3 17L3 16ZM21 16L21 17L22 17L22 18L23 18L23 17L22 17L22 16ZM8 17L8 18L9 18L9 17ZM15 17L15 18L17 18L17 19L16 19L16 20L18 20L18 19L20 19L20 18L19 18L19 17ZM14 19L14 20L15 20L15 19ZM21 21L21 24L24 24L24 21ZM15 22L15 23L14 23L14 24L16 24L16 25L19 25L19 24L16 24L16 22ZM22 22L22 23L23 23L23 22ZM22 26L22 27L23 27L23 26ZM14 27L14 28L15 28L15 27ZM0 0L0 7L7 7L7 0ZM1 1L1 6L6 6L6 1ZM2 2L2 5L5 5L5 2ZM22 0L22 7L29 7L29 0ZM23 1L23 6L28 6L28 1ZM24 2L24 5L27 5L27 2ZM0 22L0 29L7 29L7 22ZM1 23L1 28L6 28L6 23ZM2 24L2 27L5 27L5 24Z" fill="#000000"/></g></g></svg>
