<?xml version="1.0" encoding="UTF-8"?>
<svg xmlns="http://www.w3.org/2000/svg" version="1.1" width="300" height="300" viewBox="0 0 300 300"><rect x="0" y="0" width="300" height="300" fill="#ffffff"/><g transform="scale(10.345)"><g transform="translate(0,0)"><path fill-rule="evenodd" d="M10 0L10 2L11 2L11 0ZM12 0L12 1L13 1L13 2L12 2L12 4L13 4L13 3L14 3L14 4L16 4L16 5L15 5L15 6L14 6L14 8L15 8L15 9L12 9L12 7L13 7L13 5L11 5L11 6L10 6L10 4L11 4L11 3L8 3L8 4L9 4L9 5L8 5L8 7L9 7L9 8L6 8L6 9L8 9L8 11L7 11L7 10L2 10L2 13L3 13L3 14L1 14L1 15L0 15L0 16L1 16L1 17L0 17L0 21L1 21L1 17L2 17L2 16L3 16L3 14L4 14L4 15L5 15L5 14L6 14L6 15L7 15L7 16L6 16L6 17L7 17L7 16L8 16L8 17L10 17L10 18L11 18L11 17L12 17L12 18L13 18L13 19L12 19L12 21L13 21L13 20L14 20L14 21L16 21L16 22L15 22L15 23L14 23L14 24L15 24L15 25L12 25L12 23L13 23L13 22L11 22L11 25L9 25L9 24L8 24L8 29L9 29L9 27L10 27L10 26L11 26L11 25L12 25L12 26L13 26L13 27L12 27L12 29L13 29L13 28L14 28L14 29L19 29L19 28L22 28L22 29L24 29L24 28L25 28L25 26L26 26L26 27L27 27L27 28L26 28L26 29L27 29L27 28L28 28L28 26L29 26L29 25L27 25L27 24L28 24L28 22L29 22L29 20L28 20L28 18L29 18L29 17L28 17L28 18L26 18L26 17L27 17L27 16L25 16L25 15L26 15L26 14L25 14L25 13L22 13L22 12L23 12L23 11L22 11L22 10L25 10L25 11L24 11L24 12L26 12L26 13L27 13L27 14L29 14L29 13L27 13L27 12L28 12L28 10L29 10L29 9L28 9L28 8L27 8L27 9L28 9L28 10L26 10L26 8L25 8L25 9L24 9L24 8L23 8L23 9L22 9L22 8L21 8L21 6L20 6L20 9L18 9L18 8L15 8L15 6L16 6L16 7L17 7L17 5L21 5L21 4L19 4L19 3L20 3L20 2L21 2L21 1L20 1L20 0L19 0L19 1L20 1L20 2L19 2L19 3L17 3L17 4L16 4L16 3L14 3L14 2L18 2L18 1L16 1L16 0L15 0L15 1L14 1L14 0ZM8 1L8 2L9 2L9 1ZM9 6L9 7L10 7L10 6ZM11 6L11 7L12 7L12 6ZM18 6L18 7L19 7L19 6ZM0 8L0 11L1 11L1 9L5 9L5 8ZM10 8L10 9L9 9L9 11L8 11L8 12L7 12L7 11L5 11L5 12L4 12L4 11L3 11L3 13L6 13L6 14L7 14L7 13L8 13L8 12L11 12L11 13L10 13L10 14L9 14L9 16L10 16L10 17L11 17L11 16L10 16L10 15L11 15L11 14L13 14L13 15L12 15L12 17L15 17L15 18L18 18L18 19L16 19L16 21L17 21L17 22L18 22L18 23L17 23L17 24L16 24L16 25L15 25L15 26L16 26L16 28L18 28L18 27L21 27L21 26L25 26L25 25L26 25L26 26L27 26L27 25L26 25L26 24L27 24L27 23L26 23L26 22L28 22L28 21L26 21L26 20L27 20L27 19L26 19L26 18L24 18L24 17L25 17L25 16L24 16L24 15L25 15L25 14L23 14L23 15L22 15L22 14L21 14L21 16L20 16L20 14L19 14L19 13L21 13L21 9L20 9L20 10L19 10L19 11L18 11L18 9L15 9L15 10L17 10L17 11L14 11L14 12L13 12L13 13L12 13L12 11L13 11L13 10L12 10L12 9L11 9L11 8ZM10 9L10 11L11 11L11 9ZM19 11L19 12L17 12L17 13L16 13L16 12L14 12L14 13L16 13L16 14L15 14L15 15L14 15L14 16L15 16L15 17L19 17L19 18L20 18L20 21L19 21L19 19L18 19L18 20L17 20L17 21L19 21L19 23L20 23L20 25L25 25L25 24L26 24L26 23L25 23L25 20L26 20L26 19L23 19L23 20L22 20L22 19L21 19L21 18L20 18L20 16L19 16L19 15L18 15L18 14L17 14L17 13L19 13L19 12L20 12L20 11ZM26 11L26 12L27 12L27 11ZM6 12L6 13L7 13L7 12ZM16 14L16 15L17 15L17 16L18 16L18 15L17 15L17 14ZM4 16L4 17L3 17L3 18L2 18L2 20L3 20L3 21L8 21L8 23L10 23L10 20L11 20L11 19L10 19L10 20L9 20L9 21L8 21L8 19L9 19L9 18L8 18L8 19L7 19L7 18L6 18L6 19L7 19L7 20L5 20L5 19L3 19L3 18L5 18L5 16ZM21 16L21 17L22 17L22 18L23 18L23 17L24 17L24 16L23 16L23 17L22 17L22 16ZM14 19L14 20L15 20L15 19ZM21 21L21 24L24 24L24 21ZM22 22L22 23L23 23L23 22ZM17 24L17 25L16 25L16 26L17 26L17 25L19 25L19 24ZM14 27L14 28L15 28L15 27ZM22 27L22 28L23 28L23 27ZM10 28L10 29L11 29L11 28ZM0 0L0 7L7 7L7 0ZM1 1L1 6L6 6L6 1ZM2 2L2 5L5 5L5 2ZM22 0L22 7L29 7L29 0ZM23 1L23 6L28 6L28 1ZM24 2L24 5L27 5L27 2ZM0 22L0 29L7 29L7 22ZM1 23L1 28L6 28L6 23ZM2 24L2 27L5 27L5 24Z" fill="#000000"/></g></g></svg>
